<svg width="32" height="32" viewBox="0 0 32 32" fill="none" xmlns="http://www.w3.org/2000/svg">
<path d="M9.99976 5C9.01085 5 8.04415 5.29325 7.22191 5.84265C6.39966 6.39206 5.7588 7.17295 5.38036 8.08659C5.00192 9.00022 4.90291 10.0055 5.09583 10.9755C5.28876 11.9454 5.76496 12.8363 6.46422 13.5355C7.16349 14.2348 8.0544 14.711 9.02431 14.9039C9.99421 15.0969 10.9995 14.9978 11.9132 14.6194C12.8268 14.241 13.6077 13.6001 14.1571 12.7779C14.7065 11.9556 14.9998 10.9889 14.9998 10C14.9998 8.67392 14.473 7.40215 13.5353 6.46447C12.5976 5.52679 11.3258 5 9.99976 5ZM9.99976 13C9.40641 13 8.82639 12.8241 8.33305 12.4944C7.8397 12.1648 7.45518 11.6962 7.22812 11.1481C7.00106 10.5999 6.94165 9.99667 7.0574 9.41473C7.17316 8.83279 7.45888 8.29824 7.87844 7.87868C8.298 7.45912 8.83254 7.1734 9.41449 7.05765C9.99643 6.94189 10.5996 7.0013 11.1478 7.22836C11.696 7.45543 12.1645 7.83994 12.4942 8.33329C12.8238 8.82664 12.9998 9.40666 12.9998 10C12.9998 10.7957 12.6837 11.5587 12.1211 12.1213C11.5585 12.6839 10.7954 13 9.99976 13ZM21.9998 15C22.9887 15 23.9554 14.7068 24.7776 14.1573C25.5999 13.6079 26.2407 12.827 26.6192 11.9134C26.9976 10.9998 27.0966 9.99446 26.9037 9.02455C26.7108 8.05465 26.2346 7.16373 25.5353 6.46447C24.836 5.76521 23.9451 5.289 22.9752 5.09608C22.0053 4.90315 21 5.00217 20.0863 5.3806C19.1727 5.75904 18.3918 6.39991 17.8424 7.22215C17.293 8.0444 16.9998 9.0111 16.9998 10C16.9998 11.3261 17.5265 12.5979 18.4642 13.5355C19.4019 14.4732 20.6737 15 21.9998 15ZM21.9998 7C22.5931 7 23.1731 7.17595 23.6665 7.50559C24.1598 7.83524 24.5443 8.30377 24.7714 8.85195C24.9985 9.40013 25.0579 10.0033 24.9421 10.5853C24.8264 11.1672 24.5406 11.7018 24.1211 12.1213C23.7015 12.5409 23.167 12.8266 22.585 12.9424C22.0031 13.0581 21.3999 12.9987 20.8517 12.7716C20.3035 12.5446 19.835 12.1601 19.5053 11.6667C19.1757 11.1734 18.9998 10.5933 18.9998 10C18.9998 9.20435 19.3158 8.44129 19.8784 7.87868C20.441 7.31607 21.2041 7 21.9998 7ZM9.99976 17C9.01085 17 8.04415 17.2932 7.22191 17.8427C6.39966 18.3921 5.7588 19.173 5.38036 20.0866C5.00192 21.0002 4.90291 22.0055 5.09583 22.9755C5.28876 23.9454 5.76496 24.8363 6.46422 25.5355C7.16349 26.2348 8.0544 26.711 9.02431 26.9039C9.99421 27.0969 10.9995 26.9978 11.9132 26.6194C12.8268 26.241 13.6077 25.6001 14.1571 24.7779C14.7065 23.9556 14.9998 22.9889 14.9998 22C14.9998 20.6739 14.473 19.4022 13.5353 18.4645C12.5976 17.5268 11.3258 17 9.99976 17ZM9.99976 25C9.40641 25 8.82639 24.8241 8.33305 24.4944C7.8397 24.1648 7.45518 23.6962 7.22812 23.1481C7.00106 22.5999 6.94165 21.9967 7.0574 21.4147C7.17316 20.8328 7.45888 20.2982 7.87844 19.8787C8.298 19.4591 8.83254 19.1734 9.41449 19.0576C9.99643 18.9419 10.5996 19.0013 11.1478 19.2284C11.696 19.4554 12.1645 19.8399 12.4942 20.3333C12.8238 20.8266 12.9998 21.4067 12.9998 22C12.9998 22.7957 12.6837 23.5587 12.1211 24.1213C11.5585 24.6839 10.7954 25 9.99976 25ZM26.9998 22C26.9998 22.2652 26.8944 22.5196 26.7069 22.7071C26.5193 22.8946 26.265 23 25.9998 23H22.9998V26C22.9998 26.2652 22.8944 26.5196 22.7069 26.7071C22.5193 26.8946 22.265 27 21.9998 27C21.7345 27 21.4802 26.8946 21.2927 26.7071C21.1051 26.5196 20.9998 26.2652 20.9998 26V23H17.9998C17.7345 23 17.4802 22.8946 17.2927 22.7071C17.1051 22.5196 16.9998 22.2652 16.9998 22C16.9998 21.7348 17.1051 21.4804 17.2927 21.2929C17.4802 21.1054 17.7345 21 17.9998 21H20.9998V18C20.9998 17.7348 21.1051 17.4804 21.2927 17.2929C21.4802 17.1054 21.7345 17 21.9998 17C22.265 17 22.5193 17.1054 22.7069 17.2929C22.8944 17.4804 22.9998 17.7348 22.9998 18V21H25.9998C26.265 21 26.5193 21.1054 26.7069 21.2929C26.8944 21.4804 26.9998 21.7348 26.9998 22Z" fill="black"/>
</svg>
