<svg width="28" height="24" viewBox="0 0 28 24" fill="none" xmlns="http://www.w3.org/2000/svg">
<path d="M13 11.9956C13 12.2608 12.8946 12.5152 12.7071 12.7027C12.5196 12.8902 12.2652 12.9956 12 12.9956H6C5.73478 12.9956 5.48043 12.8902 5.29289 12.7027C5.10536 12.5152 5 12.2608 5 11.9956C5 11.7304 5.10536 11.476 5.29289 11.2885C5.48043 11.101 5.73478 10.9956 6 10.9956H12C12.2652 10.9956 12.5196 11.101 12.7071 11.2885C12.8946 11.476 13 11.7304 13 11.9956ZM12 6.99561H6C5.73478 6.99561 5.48043 7.10096 5.29289 7.2885C5.10536 7.47604 5 7.73039 5 7.99561C5 8.26082 5.10536 8.51518 5.29289 8.70271C5.48043 8.89025 5.73478 8.99561 6 8.99561H12C12.2652 8.99561 12.5196 8.89025 12.7071 8.70271C12.8946 8.51518 13 8.26082 13 7.99561C13 7.73039 12.8946 7.47604 12.7071 7.2885C12.5196 7.10096 12.2652 6.99561 12 6.99561ZM26 15.1794V22.9956C26.0016 23.1719 25.9565 23.3455 25.8694 23.4988C25.7823 23.652 25.6562 23.7795 25.5039 23.8684C25.3516 23.9572 25.1786 24.0042 25.0023 24.0046C24.826 24.005 24.6527 23.9588 24.5 23.8706L21.5 22.1531L18.5 23.8706C18.3473 23.9588 18.174 24.005 17.9977 24.0046C17.8214 24.0042 17.6484 23.9572 17.4961 23.8684C17.3438 23.7795 17.2177 23.652 17.1306 23.4988C17.0435 23.3455 16.9984 23.1719 17 22.9956V19.9956H2C1.46957 19.9956 0.960859 19.7849 0.585786 19.4098C0.210714 19.0347 0 18.526 0 17.9956V1.99561C0 1.46517 0.210714 0.956465 0.585786 0.581392C0.960859 0.206319 1.46957 -0.00439453 2 -0.00439453H24C24.5304 -0.00439453 25.0391 0.206319 25.4142 0.581392C25.7893 0.956465 26 1.46517 26 1.99561V5.81186C26.6321 6.41721 27.1352 7.14426 27.4789 7.94922C27.8225 8.75417 27.9997 9.62036 27.9997 10.4956C27.9997 11.3709 27.8225 12.237 27.4789 13.042C27.1352 13.8469 26.6321 14.574 26 15.1794ZM17 17.9956V15.1794C15.9103 14.1284 15.2216 12.73 15.0527 11.2255C14.8839 9.72099 15.2456 8.20474 16.0753 6.9384C16.905 5.67205 18.1507 4.73505 19.5975 4.28908C21.0443 3.84312 22.6013 3.91616 24 4.49561V1.99561H2V17.9956H17ZM24 16.4956C23.208 16.8265 22.3583 16.9969 21.5 16.9969C20.6417 16.9969 19.792 16.8265 19 16.4956V21.2731L21 20.1281C21.1511 20.0417 21.3222 19.9963 21.4963 19.9963C21.6703 19.9963 21.8414 20.0417 21.9925 20.1281L23.9925 21.2731L24 16.4956ZM26 10.4956C26 9.60559 25.7361 8.73556 25.2416 7.99554C24.7471 7.25552 24.0443 6.67874 23.2221 6.33815C22.3998 5.99755 21.495 5.90844 20.6221 6.08207C19.7492 6.2557 18.9474 6.68429 18.318 7.31363C17.6887 7.94296 17.2601 8.74478 17.0865 9.6177C16.9128 10.4906 17.0019 11.3954 17.3425 12.2177C17.6831 13.0399 18.2599 13.7428 18.9999 14.2372C19.74 14.7317 20.61 14.9956 21.5 14.9956C22.0909 14.9956 22.6761 14.8792 23.2221 14.6531C23.768 14.4269 24.2641 14.0954 24.682 13.6776C25.0998 13.2597 25.4313 12.7636 25.6575 12.2177C25.8836 11.6717 26 11.0866 26 10.4956Z" fill="black"/>
</svg>
